<?xml version="1.0" encoding="utf-8"?><svg viewBox="0 0 40 40" xmlns="http://www.w3.org/2000/svg" xmlns:xlink="http://www.w3.org/1999/xlink"><style>:root>svg{display:none}:root>svg:target{display:block}</style><svg viewBox="0 0 31 31" id="add" xmlns="http://www.w3.org/2000/svg"><path d="M15 0h1v31h-1z"/><path d="M0 16v-1h31v1z"/></svg><svg viewBox="0 0 14 8" id="arrow-down" xmlns="http://www.w3.org/2000/svg"><path d="M.534.455a.676.676 0 01.893-.068l.077.068L7 6.06 12.496.455a.676.676 0 01.893-.068l.077.068a.71.71 0 01.066.91l-.066.08-5.98 6.1a.676.676 0 01-.894.068l-.077-.068-5.98-6.1a.71.71 0 010-.99z"/></svg><svg viewBox="0 0 6 10" id="arrow-next" xmlns="http://www.w3.org/2000/svg"><path d="M5.56 4.8L.842.084a.282.282 0 00-.4 0 .282.282 0 000 .4L4.958 5 .442 9.516a.285.285 0 00.2.484.276.276 0 00.198-.084L5.557 5.2A.281.281 0 005.56 4.8z"/></svg><svg viewBox="0 0 15 15" id="close" xmlns="http://www.w3.org/2000/svg"><path d="M8.328 7.5l6.5-6.5A.586.586 0 1014 .172l-6.5 6.5L1 .171A.586.586 0 10.171 1l6.5 6.5-6.5 6.5a.586.586 0 00.83.828l6.499-6.5 6.5 6.5a.584.584 0 00.828 0 .586.586 0 000-.828l-6.5-6.5z"/></svg><svg viewBox="0 0 18 20" id="delete" xmlns="http://www.w3.org/2000/svg"><path d="M2.438 2.5h3.437v-.625C5.875.839 6.715 0 7.75 0h2.5c1.036 0 1.875.84 1.875 1.875V2.5h3.438c.862 0 1.562.7 1.562 1.563v1.25c0 .345-.28.625-.625.625h-15a.625.625 0 01-.625-.625v-1.25c0-.863.7-1.563 1.563-1.563zm8.437-.625a.626.626 0 00-.625-.625h-2.5a.626.626 0 00-.625.625V2.5h3.75v-.625zM15.94 7.188c.111 0 .2.093.195.204l-.516 10.822A1.873 1.873 0 0113.746 20h-9.49a1.873 1.873 0 01-1.874-1.786L1.867 7.392a.195.195 0 01.195-.205H15.94zM6.5 8.75a.625.625 0 10-1.25 0v8.125a.625.625 0 101.25 0V8.75zm3.126 0a.625.625 0 10-1.25 0v8.125a.625.625 0 101.25 0V8.75zm3.125 0a.625.625 0 10-1.25 0v8.125a.625.625 0 101.25 0V8.75z"/></svg><svg viewBox="0 0 18 20" id="documents" xmlns="http://www.w3.org/2000/svg"><path d="M11.557.547l5.282 5.282h-3.476c-.996 0-1.806-.81-1.806-1.806V.547zM13.003 18.194A1.81 1.81 0 0111.196 20H2.423c-.996 0-1.806-.81-1.806-1.806V5.035c0-.996.81-1.806 1.806-1.806H6.4V7.25a2.583 2.583 0 002.58 2.58h4.024v8.363z"/><path d="M12.457 9.057H8.98c-.996 0-1.806-.81-1.806-1.806V3.775l5.283 5.282z"/><path d="M15.58 16.772h-1.804V9.444c0-.009-.005-.017-.006-.026a.387.387 0 00-.02-.096l-.013-.039a.383.383 0 00-.075-.112L7.058 2.567a.39.39 0 00-.114-.076c-.011-.005-.023-.008-.034-.012a.362.362 0 00-.102-.02c-.008-.001-.016-.006-.024-.006H5v-.647C5 .81 5.81 0 6.807 0h3.975v4.023a2.583 2.583 0 002.58 2.58h4.023v8.363c0 .996-.81 1.806-1.805 1.806z"/></svg><svg viewBox="0 0 15 11" id="done" xmlns="http://www.w3.org/2000/svg"><path d="M5.245 10.756a.734.734 0 01-.52-.215L.215 6.03a.735.735 0 111.042-1.04l3.988 3.988L13.743.481a.735.735 0 111.041 1.042L5.766 10.54a.735.735 0 01-.52.215z"/></svg><svg viewBox="0 0 25 24" id="download" xmlns="http://www.w3.org/2000/svg"><path d="M11.538 5.988V.977A.97.97 0 0112.5 0c.481 0 .89.373.954.846l.009.13v5.012h5.975c2.975 0 5.419 2.437 5.556 5.475l.006.27v6.299c0 3.06-2.36 5.57-5.29 5.712l-.26.006H5.55c-2.975 0-5.407-2.424-5.544-5.473L0 18.006V11.72c0-3.06 2.347-5.583 5.277-5.725l.26-.006h6v8.003l-2-2.066a.944.944 0 00-1.362 0 1.012 1.012 0 00-.275.71c0 .196.056.4.174.574l.101.123 3.637 3.77a.92.92 0 00.688.296.918.918 0 00.582-.207l.093-.09 3.637-3.769a1.02 1.02 0 000-1.407.944.944 0 00-1.254-.096l-.108.096-1.987 2.066V5.989h-1.925z"/></svg><svg viewBox="0 0 40 40" id="error" xmlns="http://www.w3.org/2000/svg"><path d="M20 0C8.955 0 0 8.955 0 20s8.955 20 20 20 20-8.955 20-20S31.045 0 20 0zm0 32.767c-1.563 0-2.633-1.205-2.633-2.767 0-1.607 1.115-2.767 2.633-2.767 1.605 0 2.633 1.16 2.633 2.767 0 1.563-1.028 2.767-2.633 2.767zm1.037-10.565c-.399 1.358-1.654 1.381-2.072 0-.482-1.594-2.193-7.642-2.193-11.57 0-5.184 6.485-5.209 6.485 0-.002 3.951-1.805 10.156-2.22 11.57z"/></svg><svg viewBox="0 0 20 12" id="eye" xmlns="http://www.w3.org/2000/svg"><path d="M10 .04C6.179.04 2.714 2.13.156 5.524a.792.792 0 000 .945C2.714 9.87 6.18 11.96 10 11.96c3.821 0 7.287-2.09 9.843-5.485a.792.792 0 000-.946C17.287 2.13 13.821.04 10 .04zm.274 10.158a4.209 4.209 0 01-4.472-4.472 4.216 4.216 0 013.924-3.924 4.209 4.209 0 014.472 4.472 4.23 4.23 0 01-3.924 3.924zm-.127-1.94a2.261 2.261 0 01-2.405-2.405 2.275 2.275 0 012.115-2.115 2.261 2.261 0 012.405 2.405 2.275 2.275 0 01-2.115 2.115z"/></svg><svg viewBox="0 0 18 16" id="friends" xmlns="http://www.w3.org/2000/svg"><path d="M6.79 10.381c3.322 0 6.125.528 6.125 2.57 0 2.039-2.821 2.549-6.125 2.549h-.225C3.343 15.474.666 14.925.666 12.93c0-2.04 2.821-2.55 6.124-2.55zm5.184-1.228c1.263-.024 2.622.146 3.123.266 1.063.203 1.762.618 2.052 1.222.245.495.245 1.07 0 1.565-.443.936-1.872 1.237-2.427 1.315a.172.172 0 01-.195-.194c.284-2.593-1.972-3.823-2.556-4.106-.025-.013-.03-.032-.028-.045.002-.008.012-.02.031-.023zM6.79.5c2.25 0 4.053 1.766 4.053 3.969S9.04 8.437 6.79 8.437c-2.248 0-4.052-1.765-4.052-3.968C2.738 2.266 4.542.5 6.79.5zm5.404.663c2.173 0 3.88 2.001 3.298 4.23-.393 1.502-1.812 2.499-3.394 2.458a3.305 3.305 0 01-.466-.043c-.11-.019-.165-.14-.102-.229.603-.87.947-1.916.947-3.038a5.345 5.345 0 00-1.028-3.16c-.021-.029-.037-.071-.015-.104.016-.026.048-.04.079-.046.22-.044.446-.068.681-.068z"/></svg><svg viewBox="0 0 20 21" id="info" xmlns="http://www.w3.org/2000/svg"><path d="M17.072 3.483C13.165-.42 6.834-.422 2.928 3.483c-3.905 3.906-3.905 10.237 0 14.143 3.905 3.905 10.237 3.905 14.143 0 3.904-3.906 3.904-10.237 0-14.143zm-5.768 11.42a1.304 1.304 0 11-2.609 0V9.685a1.304 1.304 0 112.61 0v5.218zM9.977 7.456c-.752 0-1.252-.532-1.237-1.19-.015-.688.485-1.204 1.252-1.204s1.252.516 1.268 1.205c0 .657-.5 1.189-1.283 1.189z"/></svg><svg viewBox="0 0 25 25" id="integration" xmlns="http://www.w3.org/2000/svg"><path d="M9.57 8.838h6.592V.732A.733.733 0 0015.43 0H.732A.733.733 0 000 .732V15.43c0 .404.328.732.732.732h8.106V9.57c0-.404.328-.732.732-.732z"/><path d="M24.268 8.838h-8.106v6.592a.733.733 0 01-.732.732H8.838v8.106c0 .404.328.732.732.732h14.698a.733.733 0 00.732-.732V9.57a.733.733 0 00-.732-.732z"/></svg><svg viewBox="0 0 25 25" id="logout" xmlns="http://www.w3.org/2000/svg"><path d="M12.459 22.883H3.115a1.039 1.039 0 01-1.039-1.039V3.157c0-.573.466-1.039 1.039-1.039h9.344a1.037 1.037 0 100-2.076H3.115A3.118 3.118 0 000 3.157v18.687a3.118 3.118 0 003.115 3.115h9.344a1.037 1.037 0 100-2.076z"/><path d="M24.69 11.76l-6.312-6.229a1.038 1.038 0 10-1.457 1.479l4.51 4.451H9.345a1.037 1.037 0 100 2.077h12.088L16.92 17.99a1.038 1.038 0 101.457 1.478l6.313-6.23a1.04 1.04 0 000-1.477z"/></svg><svg viewBox="0 0 26 16" id="message" xmlns="http://www.w3.org/2000/svg"><path d="M13 11.2L8.94 8.73 1.13 15.88h23.74L17.06 8.73 13 11.2zM1.193 4.019a5.957 5.957 0 01-1.185-.947L0 14.847l7.584-6.941-6.39-3.887zM24.807 4.019l-6.391 3.887L26 14.847V3.063c-.354.367-.755.69-1.193.956z"/><path d="M.008 0v.071a4.456 4.456 0 001.976 2.646L13 9.417l11.016-6.7A4.456 4.456 0 0025.998.04V0H.008z"/></svg><svg viewBox="0 0 25 25" id="notify" xmlns="http://www.w3.org/2000/svg"><path d="M22.286 17.618a6.977 6.977 0 01-2.478-5.339V9.375c0-3.666-2.723-6.7-6.25-7.208V1.042a1.041 1.041 0 10-2.083 0v1.125c-3.529.508-6.25 3.542-6.25 7.208v2.904a6.984 6.984 0 01-2.488 5.347 1.825 1.825 0 001.185 3.207H21.11a1.825 1.825 0 001.823-1.823c0-.533-.232-1.037-.647-1.392zM12.516 25a3.912 3.912 0 003.827-3.125H8.69A3.913 3.913 0 0012.516 25z"/></svg><svg viewBox="0 0 15 15" id="pencil" xmlns="http://www.w3.org/2000/svg"><g clip-path="url(#qclip0)"><path d="M9.263 2.52L1.01 10.773a.33.33 0 00-.086.151L.01 14.596a.326.326 0 00.315.403.32.32 0 00.078-.01l3.672-.914a.324.324 0 00.15-.086l8.255-8.253L9.263 2.52zM14.523 1.395l-.918-.92c-.614-.613-1.685-.613-2.298 0l-1.125 1.126 3.216 3.217 1.125-1.126c.307-.306.476-.715.476-1.149 0-.434-.169-.842-.476-1.148z"/></g><defs><clipPath id="qclip0"><path d="M0 0h15v15H0z"/></clipPath></defs></svg><svg viewBox="0 0 20 20" id="reload" xmlns="http://www.w3.org/2000/svg"><path d="M5.712 19.962a.776.776 0 00.498-.977l-.328-1.008a9.447 9.447 0 004.116.94c5.216 0 9.46-4.242 9.46-9.458S15.213 0 9.997 0C4.783 0 .54 4.243.54 9.459a.775.775 0 001.551 0c0-4.36 3.548-7.908 7.908-7.908 4.361 0 7.909 3.547 7.909 7.908 0 4.36-3.548 7.908-7.909 7.908a7.895 7.895 0 01-3.446-.789l1.06-.344a.775.775 0 00-.48-1.475l-2.813.914a.776.776 0 00-.498.977l.914 2.814c.132.407.57.63.977.498z"/></svg><svg viewBox="0 0 14 14" id="search" xmlns="http://www.w3.org/2000/svg"><path d="M5.5 10.744a5.15 5.15 0 003.349-1.22l4.07 4.07c.093.092.209.139.337.139a.477.477 0 00.337-.814l-4.07-4.07A5.236 5.236 0 0010.744 5.5 5.245 5.245 0 005.5.256C2.616.256.256 2.616.256 5.5A5.253 5.253 0 005.5 10.744zm0-9.535c2.372 0 4.29 1.93 4.29 4.291A4.288 4.288 0 015.5 9.79 4.295 4.295 0 011.21 5.5c0-2.36 1.93-4.29 4.29-4.29z"/></svg><svg viewBox="0 0 25 26" id="upload" xmlns="http://www.w3.org/2000/svg"><path d="M0 14.11c0-3.015 2.347-5.49 5.289-5.629l.261-.006h5.987v7.631c0 .547.425.98.963.98a.97.97 0 00.954-.846l.008-.134v-7.63h5.976c2.975 0 5.419 2.388 5.556 5.392l.006.267v6.193c0 3.027-2.347 5.502-5.289 5.641l-.261.006H5.563c-2.988 0-5.42-2.4-5.557-5.394L0 20.316v-6.207zM8.188 5.3a.955.955 0 01-.106-1.255l.093-.107 3.638-3.65a.955.955 0 011.249-.102l.113.101 3.638 3.65a.97.97 0 01.287.675.966.966 0 01-1.542.78l-.108-.092-1.987-2v5.175h-1.925V3.3l-1.988 2a.966.966 0 01-1.362 0z"/></svg><svg viewBox="0 0 20 20" id="user" xmlns="http://www.w3.org/2000/svg"><path d="M17.071 12.929a9.963 9.963 0 00-3.8-2.384 5.78 5.78 0 002.51-4.764A5.788 5.788 0 0010 0a5.788 5.788 0 00-5.781 5.781 5.78 5.78 0 002.51 4.764 9.962 9.962 0 00-3.8 2.384A9.935 9.935 0 000 20h1.563c0-4.652 3.785-8.438 8.437-8.438 4.652 0 8.438 3.786 8.438 8.438H20a9.935 9.935 0 00-2.929-7.071zM10 10a4.224 4.224 0 01-4.219-4.219A4.224 4.224 0 0110 1.563a4.224 4.224 0 014.219 4.218A4.224 4.224 0 0110 10z"/></svg></svg>