<?xml version="1.0" encoding="utf-8"?><svg viewBox="0 0 20 12" xmlns="http://www.w3.org/2000/svg" xmlns:xlink="http://www.w3.org/1999/xlink"><style>:root>svg{display:none}:root>svg:target{display:block}</style><svg viewBox="0 0 20 12" id="eye" xmlns="http://www.w3.org/2000/svg"><path d="M10 .04C6.179.04 2.714 2.13.156 5.524a.792.792 0 000 .945C2.714 9.87 6.18 11.96 10 11.96c3.821 0 7.287-2.09 9.843-5.485a.792.792 0 000-.946C17.287 2.13 13.821.04 10 .04zm.274 10.158a4.209 4.209 0 01-4.472-4.472 4.216 4.216 0 013.924-3.924 4.209 4.209 0 014.472 4.472 4.23 4.23 0 01-3.924 3.924zm-.127-1.94a2.261 2.261 0 01-2.405-2.405 2.275 2.275 0 012.115-2.115 2.261 2.261 0 012.405 2.405 2.275 2.275 0 01-2.115 2.115z"/></svg></svg>