<?xml version="1.0" encoding="utf-8"?>
<!-- Generator: Adobe Illustrator 24.0.2, SVG Export Plug-In . SVG Version: 6.00 Build 0)  -->
<svg version="1.1" id="Слой_1" xmlns="http://www.w3.org/2000/svg" xmlns:xlink="http://www.w3.org/1999/xlink" x="0px"
	y="0px" viewBox="0 0 95.6 84" style="enable-background:new 0 0 95.6 84;" xml:space="preserve">
	<style type="text/css">
		.ss {
			fill: none;
			stroke: url(#s);
			stroke-width: 3;
			stroke-miterlimit: 10;
		}
	</style>
	<g>

		<linearGradient id="s" gradientUnits="userSpaceOnUse" x1="1.8545" y1="33.5165" x2="93.5013" y2="51.3278"
			gradientTransform="matrix(1 0 0 -1 0 84.64)">
			<stop offset="0" style="stop-color:#00B3A1" />
			<stop offset="0" style="stop-color:#00DFBC" />
			<stop offset="0.2" style="stop-color:#0FCDC6" />
			<stop offset="0.59" style="stop-color:#389EE0" />
			<stop offset="1" style="stop-color:#6766FF" />
			<stop offset="1" style="stop-color:#0271E1" />
			<stop offset="1" style="stop-color:#6A5EB8" />
		</linearGradient>
		<path class="ss" d="M4.5,40c1.3,0,2.4,0.9,2.7,2.2h20V27.9c0-0.1,0.1-0.2,0.1-0.3l6.5-6.4c-0.9-1.2-0.6-2.9,0.7-3.8
		c1.2-0.9,2.9-0.6,3.8,0.7s0.6,2.9-0.7,3.8c-0.9,0.7-2.2,0.7-3.1,0l-6.3,6.3v14.1h5.2c0.1,0,0.2,0.1,0.3,0.1l7.1,7.2h11.9
		c0.3-1.5,1.7-2.5,3.2-2.2c1.5,0.3,2.5,1.7,2.2,3.2s-1.7,2.5-3.2,2.2c-1.1-0.2-2-1.1-2.2-2.2H40.6c-0.1,0-0.2-0.1-0.3-0.1l-7.2-7.2
		H7.2c-0.3,1.5-1.7,2.5-3.1,2.2c-1.5-0.3-2.5-1.7-2.2-3.1C2.1,41,3.2,40,4.5,40L4.5,40z M37.6,35.7c0,1.5,1.3,2.7,2.7,2.7
		c1.3,0,2.4-0.9,2.6-2.2h11.9l7.2,7.2c0.1,0.1,0.2,0.1,0.3,0.1h6.7V58l-6.3,6.3c-1.2-0.9-2.9-0.6-3.8,0.6c-0.9,1.2-0.6,2.9,0.6,3.8
		c1.2,0.9,2.9,0.6,3.8-0.6c0.7-0.9,0.7-2.2,0-3.1l6.4-6.4c0.1-0.1,0.1-0.2,0.1-0.3V43.5h18.4c0.3,1.5,1.7,2.4,3.2,2.2
		c1.5-0.3,2.4-1.7,2.2-3.2c-0.3-1.5-1.7-2.4-3.2-2.2c-1.1,0.2-2,1.1-2.2,2.2H62.6l-7.2-7.2c-0.1-0.1-0.2-0.1-0.3-0.1H43
		c-0.3-1.5-1.7-2.4-3.2-2.1C38.5,33.3,37.6,34.4,37.6,35.7L37.6,35.7z M7.8,30.6c0,1.8,1.5,3.3,3.3,3.4s3.3-1.5,3.4-3.3
		c0-1-0.5-2-1.3-2.7C18.7,15.7,30.5,7.4,43.9,6.2c0.3,1.3,1.4,2.2,2.7,2.4v19.7c0,0.3,0.2,0.5,0.5,0.5s0.5-0.2,0.5-0.5V8.6
		c1.3-0.2,2.4-1.2,2.7-2.4c3.1,0.3,6.2,0.9,9.2,2v10.2c0,0.1,0.1,0.2,0.1,0.3l6.4,6.4c-0.8,1.2-0.5,2.9,0.7,3.7
		c1.2,0.8,2.9,0.5,3.7-0.7c0.8-1.2,0.5-2.9-0.7-3.7c-0.9-0.6-2.2-0.6-3.1,0l-6.3-6.3V8.6C69.6,12.1,77,19.1,81.1,28
		c-1.4,1.2-1.6,3.2-0.4,4.6c1.2,1.4,3.2,1.6,4.6,0.4c1.4-1.2,1.6-3.2,0.4-4.6c-0.6-0.8-1.6-1.2-2.5-1.2c-0.3,0-0.6,0.1-0.9,0.1
		C76.5,14.7,64.3,6,50.4,4.8c-0.3-1.8-2-3-3.8-2.7c-1.4,0.2-2.5,1.3-2.7,2.7C29.9,6,17.7,14.7,11.9,27.4c-0.3-0.1-0.5-0.1-0.8-0.1
		C9.3,27.3,7.8,28.7,7.8,30.6z M7.8,55.6c0,1.8,1.5,3.3,3.3,3.3c0.2,0,0.4,0,0.6-0.1c8.6,19.5,31.3,28.4,50.9,19.9
		c8.9-3.9,16-11,19.9-19.9c0.2,0.1,0.5,0.1,0.7,0.1c1.9,0,3.4-1.5,3.4-3.3c0-1.9-1.5-3.4-3.3-3.4c-1.9,0-3.4,1.5-3.4,3.3
		c0,1.1,0.5,2.1,1.4,2.7c-5.8,13.4-19,22.1-33.6,22.3V64.8c1.8-0.3,3-2,2.8-3.8c-0.3-1.8-2-3-3.8-2.8s-3,2-2.8,3.8
		c0.2,1.4,1.3,2.6,2.8,2.8v15.8c-6.8-0.1-13.3-2-19.1-5.6l6.3-6.3c0.1-0.1,0.1-0.2,0.1-0.3v-9.2c1.5-0.3,2.5-1.7,2.2-3.2
		c-0.3-1.5-1.7-2.5-3.2-2.2c-1.5,0.3-2.5,1.7-2.2,3.2c0.2,1.1,1.1,2,2.2,2.2v8.9l-6.3,6.3c-6-4-10.8-9.6-13.7-16.2
		c1.5-1,1.9-3.1,0.9-4.6s-3.1-1.9-4.6-0.9C8.4,53.4,7.8,54.5,7.8,55.6z" />
	</g>
</svg>