<svg width="28" height="20" viewBox="0 0 28 20" fill="none" xmlns="http://www.w3.org/2000/svg">
<path d="M13.9363 13.1745C18.2253 13.1745 21.8875 13.8545 21.8875 16.5755C21.8875 19.2953 18.2488 20 13.9363 20C9.64731 20 5.98511 19.3201 5.98511 16.6002C5.98511 13.8793 9.6238 13.1745 13.9363 13.1745ZM20.7938 11.5361C22.4335 11.5057 24.1964 11.7309 24.8478 11.8907C26.2278 12.162 27.1355 12.7159 27.5116 13.5208C27.8295 14.1816 27.8295 14.9483 27.5116 15.608C26.9363 16.8564 25.0817 17.2572 24.3609 17.3608C24.212 17.3833 24.0923 17.2538 24.1079 17.1041C24.4762 13.6447 21.5471 12.0044 20.7894 11.6273C20.7569 11.6104 20.7502 11.5845 20.7535 11.5688C20.7558 11.5575 20.7692 11.5395 20.7938 11.5361ZM6.89823 11.5338L7.207 11.5366C7.23162 11.5399 7.24393 11.558 7.24617 11.5681C7.24953 11.585 7.24281 11.6097 7.21148 11.6277C6.45262 12.0049 3.52354 13.6451 3.89177 17.1034C3.90744 17.2543 3.7888 17.3826 3.63994 17.3612C2.91914 17.2577 1.06454 16.8569 0.48924 15.6084C0.170253 14.9476 0.170253 14.1821 0.48924 13.5213C0.865309 12.7164 1.7719 12.1625 3.15194 11.89C3.80447 11.7313 5.56617 11.5062 7.207 11.5366L6.89823 11.5338ZM13.9363 1.52588e-05C16.8564 1.52588e-05 19.1979 2.35285 19.1979 5.29108C19.1979 8.22818 16.8564 10.5833 13.9363 10.5833C11.0162 10.5833 8.67467 8.22818 8.67467 5.29108C8.67467 2.35285 11.0162 1.52588e-05 13.9363 1.52588e-05ZM21.0792 0.882385C23.8998 0.882385 26.1148 3.55156 25.3604 6.52468C24.8511 8.52628 23.0077 9.8558 20.9539 9.80177C20.7479 9.79614 20.5454 9.777 20.3495 9.74323C20.2073 9.71846 20.1357 9.55748 20.2163 9.43815C20.9998 8.27862 21.4464 6.8838 21.4464 5.38654C21.4464 3.82399 20.9584 2.36726 20.1111 1.17283C20.0842 1.13568 20.0641 1.07827 20.0909 1.03549C20.1133 1.00059 20.1547 0.982577 20.1939 0.973571C20.4793 0.915032 20.7726 0.882385 21.0792 0.882385ZM6.91991 0.882272C7.22659 0.882272 7.51983 0.914919 7.80636 0.973458C7.84441 0.982465 7.88695 1.0016 7.90933 1.03538C7.93507 1.07815 7.91605 1.13557 7.88918 1.17272C7.04191 2.36715 6.55391 3.82388 6.55391 5.38643C6.55391 6.88369 7.0005 8.2785 7.78397 9.43804C7.86456 9.55737 7.79293 9.71835 7.65078 9.74312C7.45379 9.77801 7.25233 9.79603 7.04639 9.80165C4.99256 9.85569 3.14915 8.52617 2.63989 6.52457C1.88439 3.55145 4.09939 0.882272 6.91991 0.882272Z" fill="url(#paint0_linear)"/>
<defs>
<linearGradient id="paint0_linear" x1="14" y1="1.52588e-05" x2="14" y2="20" gradientUnits="userSpaceOnUse">
<stop stop-color="#07D6C1"/>
<stop offset="0.270833" stop-color="#25B2D4"/>
<stop offset="0.703125" stop-color="#5080CD"/>
<stop offset="1" stop-color="#6169BF"/>
</linearGradient>
</defs>
</svg>
