<svg width="13" height="14" viewBox="0 0 13 14" fill="#828282" xmlns="http://www.w3.org/2000/svg">
<path d="M8.80434 4.51265C8.21968 3.92799 7.39429 3.54968 6.50011 3.54968C5.60593 3.54968 4.78053 3.91079 4.19587 4.51265C3.61122 5.0973 3.23291 5.9227 3.23291 6.81688C3.23291 7.71106 3.61122 8.53646 4.19587 9.12111C4.78053 9.70577 5.60593 10.0841 6.50011 10.0841C7.39429 10.0841 8.21968 9.72296 8.80434 9.12111C9.389 8.53646 9.7673 7.71106 9.7673 6.81688C9.7673 5.9227 9.40619 5.0973 8.80434 4.51265Z" />
<path d="M6.49982 2.53515C6.74057 2.53515 6.94692 2.3288 6.94692 2.08806V0.763984C6.94692 0.523244 6.74057 0.316895 6.49982 0.316895C6.25908 0.316895 6.05273 0.523244 6.05273 0.763984V2.08806C6.05273 2.3288 6.25908 2.53515 6.49982 2.53515Z" />
<path d="M10.1626 3.79046L11.1083 2.84469C11.2803 2.67274 11.2803 2.39761 11.1083 2.22565C10.9364 2.05369 10.6612 2.05369 10.4893 2.22565L9.54352 3.17141C9.37156 3.34337 9.37156 3.6185 9.54352 3.79046C9.69828 3.96242 9.97341 3.96242 10.1626 3.79046Z" />
<path d="M12.5529 6.36975H11.2288C10.9881 6.36975 10.7817 6.5761 10.7817 6.81684C10.7817 7.05758 10.9881 7.26393 11.2288 7.26393H12.5529C12.7936 7.26393 13 7.05758 13 6.81684C13 6.5761 12.7936 6.36975 12.5529 6.36975Z" />
<path d="M10.1455 9.84332C9.97352 9.67137 9.69839 9.67137 9.52643 9.84332C9.35447 10.0153 9.35447 10.2904 9.52643 10.4624L10.4722 11.4081C10.6442 11.5801 10.9193 11.5801 11.0912 11.4081C11.2632 11.2362 11.2632 10.961 11.0912 10.7891L10.1455 9.84332Z" />
<path d="M6.49982 11.0986C6.25908 11.0986 6.05273 11.305 6.05273 11.5457V12.8698C6.05273 13.1105 6.25908 13.3169 6.49982 13.3169C6.74057 13.3169 6.94692 13.1105 6.94692 12.8698V11.5457C6.94692 11.305 6.74057 11.0986 6.49982 11.0986Z" />
<path d="M2.83743 9.84332L1.89166 10.7891C1.71971 10.961 1.71971 11.2362 1.89166 11.4081C2.06362 11.5801 2.33875 11.5801 2.51071 11.4081L3.45648 10.4624C3.62844 10.2904 3.62844 10.0153 3.45648 9.84332C3.30172 9.67137 3.02658 9.67137 2.83743 9.84332Z" />
<path d="M2.21825 6.81684C2.21825 6.5761 2.0119 6.36975 1.77116 6.36975H0.44709C0.206349 6.36975 0 6.5761 0 6.81684C0 7.05758 0.206349 7.26393 0.44709 7.26393H1.77116C2.0119 7.26393 2.21825 7.05758 2.21825 6.81684Z" />
<path d="M2.83743 3.79046C3.00939 3.96242 3.28452 3.96242 3.45648 3.79046C3.62844 3.6185 3.62844 3.34337 3.45648 3.17141L2.51071 2.22565C2.33875 2.05369 2.06362 2.05369 1.89166 2.22565C1.71971 2.39761 1.71971 2.67274 1.89166 2.84469L2.83743 3.79046Z" />
</svg>
